# AST/ASF file generated using VICON BodyLanguage
# -----------------------------------------------
:version 1.10
:name VICON
:units
  mass 1.0
  length 0.45
  angle deg
:documentation
   .ast/.asf automatically generated from VICON data using
   VICON BodyBuilder and BodyLanguage model FoxedUp or BRILLIANT.MOD
:root
   order TX TY TZ RX RY RZ
   axis XYZ
   position 0 0 0  
   orientation 0 0 0 
:bonedata
  begin
     id 1 
     name lhipjoint
     direction 0.558404 -0.748506 0.357664 
     length 2.4234 
     axis 0 0 0  XYZ
  end
  begin
     id 2 
     name lfemur
     direction 0.34202 -0.939693 0  
     length 7.14567  
     axis 0 0 20  XYZ
    dof rx ry rz
    limits (-160.0 20.0)
           (-70.0 70.0)
           (-60.0 70.0)
  end
  begin
     id 3 
     name ltibia
     direction 0.34202 -0.939693 0   
     length 8.13956   
     axis 0 0 20   XYZ
    dof rx
    limits (-10.0 170.0)
  end
  begin
     id 4 
     name lfoot
     direction 0.0791314 -0.217412 0.972867   
     length 2.00134   
     axis -90 7.62852e-016 20   XYZ
    dof rx rz
    limits (-45.0 90.0)
           (-70.0 20.0)
  end
  begin
     id 5 
     name ltoes
     direction 1.53547e-011 -4.21922e-011 1   
     length 1.00735   
     axis -90 7.62852e-016 20   XYZ
    dof rx
    limits (-90.0 20.0)
  end
  begin
     id 6 
     name rhipjoint
     direction -0.496392 -0.78327 0.374276   
     length 2.31584  
     axis 0 0 0  XYZ 
  end
  begin
     id 7 
     name rfemur
     direction -0.34202 -0.939693 0   
     length 7.47417   
     axis 0 0 -20   XYZ
    dof rx ry rz
    limits (-160.0 20.0)
           (-70.0 70.0)
           (-70.0 60.0)
  end
  begin
     id 8 
     name rtibia
     direction -0.34202 -0.939693 0   
     length 7.69071   
     axis 0 0 -20   XYZ
    dof rx
    limits (-10.0 170.0)
 end
 begin
     id 9 
     name rfoot
     direction -0.103069 -0.28318 0.953512   
     length 2.16135  
     axis -90 -7.62852e-016 -20   XYZ
    dof rx rz
    limits (-45.0 90.0)
           (-20.0 70.0)
  end
  begin
     id 10 
     name rtoes
     direction -1.53581e-011 -4.21904e-011 1   
     length 1.07867   
     axis -90 -7.62852e-016 -20   XYZ
    dof rx
    limits (-90.0 20.0)
  end
  begin
     id 11 
     name lowerback
     direction -0.0258961 0.994776 -0.0987407   
     length 2.19412   
     axis 0 0 0   XYZ
    dof rx ry rz
    limits (-20.0 45.0)
           (-30.0 30.0)
           (-30.0 30.0)
  end
  begin
     id 12 
     name upperback
     direction 0.0402454 0.999185 0.00320666   
     length 2.18445   
     axis 0 0 0   XYZ
    dof rx ry rz
    limits (-20.0 45.0)
           (-30.0 30.0)
           (-30.0 30.0)
  end
  begin
     id 13 
     name thorax
     direction 0.0519376 0.997415 0.0496558   
     length 2.21487   
     axis 0 0 0   XYZ
    dof rx ry rz
    limits (-20.0 45.0)
           (-30.0 30.0)
           (-30.0 30.0)
  end
  begin
     id 14 
     name lowerneck
     direction -0.0921276 0.983211 0.157506   
     length 1.61201   
     axis 0 0 0   XYZ
    dof rx ry rz
    limits (-20.0 45.0)
           (-30.0 30.0)
           (-30.0 30.0)
  end
  begin
     id 15 
     name upperneck
     direction 0.0820814 0.98162 -0.172292   
     length 1.65275   
     axis 0 0 0   XYZ
    dof rx ry rz
    limits (-20.0 45.0)
           (-30.0 30.0)
           (-30.0 30.0)
  end
  begin
     id 16
     name head
     direction 0.0336554 0.996413 -0.0776455  
     length 1.66415  
     axis 0 0 0   XYZ
    dof rx ry rz
    limits (-20.0 45.0)
           (-30.0 30.0)
           (-30.0 30.0)
  end
  begin
     id 17 
     name lclavicle
     direction 0.94696 0.284418 -0.149576  
     length 3.41447  
     axis 0 0 0   XYZ
    dof ry rz
    limits (-20.0 10.0)
           (0.0 20.0)
  end
  begin
     id 18 
     name lhumerus
     direction 1 -0.000130264 -9.81312e-005   
     length 5.19964   
     axis 180 -30 -90   XYZ
    dof rx ry rz
    limits (-60.0 90.0)
           (-90.0 90.0)
           (-90.0 90.0)
  end
  begin
     id 19
     name lradius
     direction 1 -4.48961e-011 1.43854e-026   
     length 3.32189   
     axis 180 -30 -90   XYZ
    dof rx
    limits (-10.0 170.0)
  end
  begin
     id 20
     name lwrist
     direction 1 -4.48958e-011 3.1502e-026   
     length 1.66095   
     axis -1.97692e-014 90 90   XYZ
    dof ry
    limits (-180.0 0.0)
 end
  begin
     id 21 
     name lhand
     direction 1 -4.48927e-011 6.3004e-026   
     length 0.645616   
     axis -4.02019e-014 90 90   XYZ
    dof rx rz
    limits (-90.0 90.0)
           (-45.0 45.0)
  end
  begin
     id 22 
     name lfingers
     direction 1 -4.4904e-011 1.26008e-025   
     length 0.520512   
     axis -8.04039e-014 90 90   XYZ
    dof rx
    limits (0.0 90.0)
  end
  begin
     id 23
     name lthumb
     direction 0.707107 -6.34947e-011 0.707107   
     length 0.747354   
     axis -90 45 2.85299e-015   XYZ
    dof rx rz
    limits (-45.0 45.0)
           (-45.0 45.0)
  end
  begin
     id 24 
     name rclavicle
     direction -0.909391 0.383475 -0.161107   
     length 3.25176  
     axis 0 0 0   XYZ 
    dof ry rz
    limits (-10.0 20.0)
           (-20.0 0.0)
  end
  begin
     id 25 
     name rhumerus
     direction -1 -4.48965e-011 -1.81384e-027  
     length 5.6595   
     axis 180 30 90   XYZ
    dof rx ry rz
    limits (-90.0 60.0)
           (-90.0 90.0)
           (-90.0 90.0)
  end
  begin
     id 26 
     name rradius
     direction -1 -4.48996e-011 -8.09397e-027   
     length 3.37604   
     axis 180 30 90   XYZ
    dof rx
    limits (-10.0 170.0)
  end
  begin
     id 27 
     name rwrist
     direction -1 -4.48927e-011 -1.56669e-026   
     length 1.68802   
     axis 1.21142e-014 -90 -90   XYZ
    dof ry
    limits (-180.0 0.0)
  end
  begin
     id 28
     name rhand
     direction -1 -4.48912e-011 -3.13339e-026   
     length 0.824702   
     axis 1.99937e-014 -90 -90   XYZ
    dof rx rz
    limits (-90.0 90.0)
           (-45.0 45.0)
  end
  begin
     id 29
     name rfingers
     direction -1 -4.49011e-011 -6.26677e-026   
     length 0.664896   
     axis 3.99874e-014 -90 -90   XYZ
    dof rx
    limits (0.0 90.0)
  end
  begin
     id 30
     name rthumb
     direction -0.707107 -6.34931e-011 0.707107   
     length 0.954662   
     axis -90 -45 -2.85299e-015   XYZ
    dof rx rz
    limits (-45.0 45.0)
           (-45.0 45.0)
  end
:hierarchy
  begin
    root lhipjoint rhipjoint lowerback
    lhipjoint lfemur
    lfemur ltibia
    ltibia lfoot
    lfoot ltoes
    rhipjoint rfemur
    rfemur rtibia
    rtibia rfoot
    rfoot rtoes
    lowerback upperback
    upperback thorax
    thorax lowerneck lclavicle rclavicle
    lowerneck upperneck
    upperneck head
    lclavicle lhumerus
    lhumerus lradius
    lradius lwrist
    lwrist lhand lthumb
    lhand lfingers
    rclavicle rhumerus
    rhumerus rradius
    rradius rwrist
    rwrist rhand rthumb
    rhand rfingers
  end

#!OML:ASF F:\VICON\USERDATA\INSTALL\rory3\rory3.ASF
:FULLY-SPECIFIED
:DEGREES
101
root 9.46493 17.7462 -14.1218 2.47594 -28.9961 -4.88931
lowerback 1.66957 0.205195 -1.64592
upperback -1.09242 0.283737 3.17184
thorax -2.08423 0.185964 4.18477
lowerneck -8.57419 -10.6698 -19.8249
upperneck 20.5462 -14.9032 14.0601
head 10.5906 -7.28655 6.27602
rclavicle 5.36346e-014 -9.74045e-015
rhumerus -36.7841 -18.8105 -71.1069
rradius 27.5619
rwrist -10.4165
rhand -8.24102 18.6124
rfingers 7.12502
rthumb 17.6769 -10.6041
lclavicle 5.36346e-014 -9.74045e-015
lhumerus -31.6161 2.4892 86.6842
lradius 25.6895
lwrist -13.4456
lhand 0.926441 31.9669
lfingers 7.12502
lthumb 26.4774 60.1371
rfemur -10.5547 3.94236 16.472
rtibia 34.4389
rfoot -19.0322 -10.3162
rtoes 10.2206
lfemur -7.74604 -2.21728 -16.332
ltibia 34.9117
lfoot -23.8274 8.04437
ltoes -1.91492
102
root 9.46093 17.7473 -14.1306 2.48491 -28.8742 -4.80678
lowerback 1.66847 0.215741 -1.73989
upperback -1.1356 0.296212 3.16652
thorax -2.12975 0.194933 4.2323
lowerneck -8.64944 -10.5246 -19.8245
upperneck 20.6097 -14.7134 14.1679
head 10.5995 -7.18788 6.35032
rclavicle -6.7711e-015 1.53064e-014
rhumerus -36.7501 -18.7777 -71.1177
rradius 27.4618
rwrist -10.16
rhand -8.42689 18.5425
rfingers 7.12502
rthumb 17.498 -10.69
lclavicle -6.7711e-015 1.53064e-014
lhumerus -31.7187 2.46088 86.681
lradius 25.9224
lwrist -13.1521
lhand 0.654184 31.8848
lfingers 7.12502
lthumb 26.2168 60.094
rfemur -10.6023 4.00496 16.4439
rtibia 34.4239
rfoot -19.045 -10.4901
rtoes 10.3108
lfemur -7.8732 -2.18467 -16.3568
ltibia 34.9657
lfoot -23.8312 7.9559
ltoes -2.09402
103
root 9.45646 17.7498 -14.1348 2.58766 -28.7275 -4.9297
lowerback 1.53452 0.227331 -1.60649
upperback -1.12784 0.315629 3.21963
thorax -2.04756 0.201537 4.21121
lowerneck -8.48387 -10.3329 -19.9598
upperneck 20.4181 -14.4646 14.3527
head 10.476 -7.07451 6.49004
rclavicle -3.47314e-014 5.56597e-015
rhumerus -36.6329 -19.3672 -70.8494
rradius 27.1895
rwrist -9.26371
rhand -8.7248 18.2129
rfingers 7.12502
rthumb 17.2113 -11.0449
lclavicle -3.47314e-014 5.56597e-015
lhumerus -31.6997 2.16193 86.8155
lradius 26.0749
lwrist -12.5205
lhand 0.358714 31.9651
lfingers 7.12502
lthumb 25.9339 60.2161
rfemur -10.6123 3.98832 16.6028
rtibia 34.3896
rfoot -18.9959 -10.5964
rtoes 10.1335
lfemur -7.97923 -2.31141 -16.2008
ltibia 35.0156
lfoot -23.8576 7.85588
ltoes -1.69256
104
root 9.45265 17.752 -14.1341 2.66819 -28.519 -5.09987
lowerback 1.42066 0.267193 -1.37009
upperback -1.06747 0.373479 3.26137
thorax -1.92481 0.224703 4.11854
lowerneck -8.5832 -10.2033 -19.888
upperneck 20.372 -14.2422 14.2859
head 10.4221 -6.96649 6.48777
rclavicle -2.94077e-014 2.54444e-014
rhumerus -36.5904 -20.0705 -70.4589
rradius 27.0364
rwrist -8.75097
rhand -8.85514 17.8601
rfingers 7.12502
rthumb 17.0859 -11.4086
lclavicle -2.94077e-014 2.54444e-014
lhumerus -31.5392 1.68399 87.0054
lradius 26.0526
lwrist -12.0835
lhand -0.0776212 31.7052
lfingers 7.12502
lthumb 25.516 60.0166
rfemur -10.5439 3.90149 16.8037
rtibia 34.3476
rfoot -19.0248 -10.7371
rtoes 9.82937
lfemur -8.04184 -2.41264 -15.9876
ltibia 35.0372
lfoot -23.8339 7.65329
ltoes -1.13524
105
root 9.44922 17.7523 -14.1299 2.62033 -28.3594 -5.11164
lowerback 1.41518 0.266282 -1.31237
upperback -1.02228 0.373026 3.29531
thorax -1.87503 0.222587 4.12104
lowerneck -8.92244 -10.0011 -19.6425
upperneck 20.4431 -13.8888 14.1192
head 10.408 -6.78385 6.43598
rclavicle -1.81453e-014 -1.09332e-014
rhumerus -36.5713 -19.9124 -70.3877
rradius 27.1046
rwrist -9.02407
rhand -8.90607 17.6322
rfingers 7.12502
rthumb 17.0369 -11.6407
lclavicle -1.81453e-014 -1.09332e-014
lhumerus -31.4438 1.53855 87.0763
lradius 25.9766
lwrist -11.9045
lhand -0.373113 31.4811
lfingers 7.12502
lthumb 25.2329 59.8327
rfemur -10.4133 3.78574 16.8343
rtibia 34.3069
rfoot -18.9999 -10.8301
rtoes 9.41375
lfemur -8.00908 -2.57968 -15.9661
ltibia 35.0138
lfoot -23.8304 7.58938
ltoes -0.715833
106
root 9.44518 17.7499 -14.1222 2.44085 -28.245 -4.86341
lowerback 1.42825 0.273308 -1.48511
upperback -0.975811 0.377394 3.24187
thorax -1.83579 0.225739 4.16321
lowerneck -9.37867 -9.80953 -19.237
upperneck 20.4567 -13.5457 13.9263
head 10.3842 -6.59049 6.3404
rclavicle 3.06998e-014 4.96962e-015
rhumerus -36.5648 -19.5804 -70.4501
rradius 27.1843
rwrist -9.41599
rhand -8.91034 17.832
rfingers 7.12502
rthumb 17.0327 -11.4413
lclavicle 3.06998e-014 4.96962e-015
lhumerus -31.3488 1.46966 87.0341
lradius 25.998
lwrist -11.5501
lhand -0.0354294 31.873
lfingers 7.12502
lthumb 25.5564 60.1786
rfemur -10.2658 3.55036 16.5706
rtibia 34.2696
rfoot -18.9649 -10.6835
rtoes 9.21108
lfemur -7.89953 -2.70128 -16.225
ltibia 34.9714
lfoot -23.8473 7.59543
ltoes -0.615306
107
root 9.43947 17.7487 -14.1159 2.2626 -28.1036 -4.55214
lowerback 1.42626 0.31363 -1.71179
upperback -0.956121 0.425078 3.13425
thorax -1.81932 0.251659 4.17838
lowerneck -9.82949 -9.69229 -18.7492
upperneck 20.5724 -13.3114 13.6035
head 10.4029 -6.45395 6.16618
rclavicle -4.85159e-014 -1.47101e-014
rhumerus -36.5907 -19.9782 -70.2197
rradius 27.0325
rwrist -9.10243
rhand -8.70972 18.2606
rfingers 7.12502
rthumb 17.2258 -10.9959
lclavicle -4.85159e-014 -1.47101e-014
lhumerus -31.3692 1.47187 86.9022
lradius 26.1539
lwrist -11.5494
lhand 0.258916 31.9258
lfingers 7.12502
lthumb 25.8383 60.1907
rfemur -10.1446 3.3623 16.2557
rtibia 34.2299
rfoot -19.0518 -10.5854
rtoes 9.18526
lfemur -7.82017 -2.82221 -16.5338
ltibia 34.9446
lfoot -23.8843 7.53538
ltoes -0.179887
108
root 9.43422 17.7502 -14.1183 2.35141 -27.8994 -4.73333
lowerback 1.41704 0.381256 -1.47605
upperback -0.911316 0.519575 3.12586
thorax -1.77361 0.294647 4.03299
lowerneck -10.3163 -9.61465 -18.3784
upperneck 20.7419 -13.1386 13.3737
head 10.4782 -6.34563 6.03571
rclavicle -2.42517e-014 -4.37326e-015
rhumerus -36.7052 -20.509 -69.8989
rradius 27.0398
rwrist -8.66891
rhand -8.39771 18.4517
rfingers 7.12502
rthumb 17.5261 -10.7783
lclavicle -2.42517e-014 -4.37326e-015
lhumerus -31.3148 1.43783 86.7807
lradius 26.3434
lwrist -11.7578
lhand 0.54539 31.7432
lfingers 7.12502
lthumb 26.1127 59.9678
rfemur -10.1143 3.34783 16.4979
rtibia 34.192
rfoot -19.0763 -10.8909
rtoes 8.59891
lfemur -7.8687 -2.95279 -16.3044
ltibia 34.9531
lfoot -23.9034 7.36626
ltoes 0.263194
109
root 9.43001 17.7522 -14.1291 2.56265 -27.6565 -5.14686
lowerback 1.47897 0.448389 -1.02577
upperback -0.911985 0.619709 3.18894
thorax -1.81277 0.339827 3.83991
lowerneck -10.6076 -9.47377 -18.1431
upperneck 20.7865 -12.9053 13.2759
head 10.4813 -6.2162 5.99201
rclavicle -2.69509e-014 1.05356e-014
rhumerus -37.0026 -20.6524 -69.6407
rradius 27.3211
rwrist -8.67645
rhand -8.02696 18.602
rfingers 7.12502
rthumb 17.8829 -10.5958
lclavicle -2.69509e-014 1.05356e-014
lhumerus -31.2571 1.14097 86.7693
lradius 26.5414
lwrist -11.5711
lhand 0.895632 31.7479
lfingers 7.12502
lthumb 26.448 59.9226
rfemur -10.1303 3.38003 16.9965
rtibia 34.1766
rfoot -19.1011 -11.2278
rtoes 8.49584
lfemur -7.99739 -2.92176 -15.7851
ltibia 34.9697
lfoot -23.8186 7.14486
ltoes -0.212993
110
root 9.42506 17.7537 -14.1379 2.62892 -27.4498 -5.19668
lowerback 1.57843 0.448163 -0.973807
upperback -1.04859 0.624736 3.23047
thorax -2.00956 0.345786 3.85291
lowerneck -10.6243 -9.23072 -17.9185
upperneck 20.8306 -12.5287 12.9943
head 10.3936 -6.05113 5.91462
rclavicle -1.56854e-014 2.20651e-014
rhumerus -37.34 -20.5579 -69.4206
rradius 27.5496
rwrist -8.67465
rhand -8.03427 18.6003
rfingers 7.12502
rthumb 17.8759 -10.5981
lclavicle -1.56854e-014 2.20651e-014
lhumerus -31.5175 0.992923 86.7442
lradius 26.7975
lwrist -11.2251
lhand 0.695068 31.3353
lfingers 7.12502
lthumb 26.256 59.5387
rfemur -10.1448 3.37185 17.0896
rtibia 34.1934
rfoot -19.227 -11.2515
rtoes 9.71996
lfemur -8.1217 -2.84297 -15.6417
ltibia 34.9695
lfoot -23.7139 6.98165
ltoes -0.871147
111
root 9.42093 17.7543 -14.1376 2.48986 -27.3085 -4.74931
lowerback 1.53369 0.431671 -1.37502
upperback -1.08531 0.593093 3.15702
thorax -2.02349 0.336049 4.00527
lowerneck -11.1628 -8.98544 -17.5698
upperneck 21.1718 -12.0967 12.6434
head 10.4925 -5.8382 5.7893
rclavicle -5.34979e-014 -1.05356e-014
rhumerus -37.4499 -20.2771 -69.4462
rradius 27.88
rwrist -8.80733
rhand -8.30306 18.4926
rfingers 7.12502
rthumb 17.6172 -10.7293
lclavicle -5.34979e-014 -1.05356e-014
lhumerus -31.5754 1.0037 86.6464
lradius 26.9331
lwrist -11.0434
lhand 0.667797 30.9483
lfingers 7.12502
lthumb 26.2299 59.1556
rfemur -10.2003 3.12177 16.6199
rtibia 34.2472
rfoot -19.2611 -11.0844
rtoes 10.1291
lfemur -8.18712 -2.88317 -16.074
ltibia 34.9484
lfoot -23.6968 6.92175
ltoes -0.904755
112
root 9.41849 17.7538 -14.134 2.29917 -27.253 -4.2846
lowerback 1.47223 0.450481 -1.77702
upperback -1.03335 0.607338 3.0743
thorax -1.94027 0.346629 4.14709
lowerneck -11.8654 -8.67295 -17.3086
upperneck 21.4568 -11.6023 12.628
head 10.6242 -5.56589 5.8102
rclavicle 2.97556e-015 1.96797e-014
rhumerus -37.4104 -20.1933 -69.4142
rradius 28.1333
rwrist -8.99468
rhand -8.22961 18.5073
rfingers 7.12502
rthumb 17.6879 -10.7082
lclavicle 2.97556e-015 1.96797e-014
lhumerus -31.4471 0.958193 86.5453
lradius 26.9934
lwrist -11.0072
lhand 1.53602 31.246
lfingers 7.12502
lthumb 27.0608 59.327
rfemur -10.2378 2.84571 16.1178
rtibia 34.3236
rfoot -19.2559 -10.9235
rtoes 9.6179
lfemur -8.16221 -2.95802 -16.5663
ltibia 34.9148
lfoot -23.7225 6.96366
ltoes -0.682628
113
root 9.41461 17.7536 -14.1388 2.33861 -27.2476 -4.38136
lowerback 1.49998 0.506939 -1.70902
upperback -0.998476 0.684451 3.13208
thorax -1.92652 0.383943 4.16596
lowerneck -12.2254 -8.39346 -17.1576
upperneck 21.4213 -11.1805 12.6976
head 10.6004 -5.33837 5.87185
rclavicle -8.66577e-015 -1.59028e-015
rhumerus -37.2917 -20.6312 -69.1266
rradius 28.0753
rwrist -8.80272
rhand -8.15444 18.417
rfingers 7.12502
rthumb 17.7602 -10.792
lclavicle -8.66577e-015 -1.59028e-015
lhumerus -31.3728 0.745749 86.4738
lradius 27.129
lwrist -10.7499
lhand 2.03766 31.2826
lfingers 7.12502
lthumb 27.5406 59.2881
rfemur -10.2708 2.97542 16.2618
rtibia 34.3825
rfoot -19.2808 -11.0562
rtoes 9.53935
lfemur -8.17384 -2.93107 -16.4369
ltibia 34.8905
lfoot -23.6785 6.95715
ltoes -0.632765
